<svg width="128" height="128" viewBox="0 0 128 128" fill="none" xmlns="http://www.w3.org/2000/svg">
<path d="M0 120.886V7.11092C0 3.18367 3.18367 0 7.11092 0C11.0382 0 14.2218 3.18367 14.2218 7.11092V120.886C14.2218 124.813 11.0382 127.997 7.11092 127.997C3.18367 127.997 0 124.813 0 120.886ZM28.4437 120.886V35.5546C28.4437 31.6273 31.6273 28.4437 35.5546 28.4437C39.4818 28.4437 42.6655 31.6273 42.6655 35.5546V120.886C42.6655 124.813 39.4818 127.997 35.5546 127.997C31.6273 127.997 28.4437 124.813 28.4437 120.886ZM56.8873 120.886V21.3328C56.8873 17.4055 60.071 14.2218 63.9983 14.2218C67.9255 14.2218 71.1092 17.4055 71.1092 21.3328V120.886C71.1092 124.813 67.9255 127.997 63.9983 127.997C60.071 127.997 56.8873 124.813 56.8873 120.886ZM90.4906 14.4927C94.2659 13.4156 98.2034 15.6062 99.282 19.3814L127.726 118.934C128.803 122.71 126.612 126.647 122.837 127.726C119.062 128.803 115.124 126.612 114.046 122.837L85.6018 23.2841C84.5248 19.5088 86.7154 15.5713 90.4906 14.4927Z" fill="url(#paint0_linear_4051_299)"/>
<defs>
<linearGradient id="paint0_linear_4051_299" x1="64" y1="0" x2="64" y2="128" gradientUnits="userSpaceOnUse">
<stop stop-color="#E8E3FF"/>
<stop offset="0.524038" stop-color="#6360CC"/>
<stop offset="0.899038" stop-color="#FF8EF4"/>
</linearGradient>
</defs>
</svg>
